<svg xmlns="http://www.w3.org/2000/svg" data-name="Layer 1" viewBox="0 0 100 125" x="0px" y="0px"><title>Artboard 38</title><path d="M25,29V41h6V29a1,1,0,0,1,1-1H68a1,1,0,0,1,1,1V41h6V29a7,7,0,0,0-7-7H32A7,7,0,0,0,25,29Z"/><path d="M19,54h6V71a7,7,0,0,0,7,7H68a7,7,0,0,0,7-7V54h6V48H19Zm50,0V71a1,1,0,0,1-1,1H32a1,1,0,0,1-1-1V54Z"/><text x="0" y="115" fill="#000000" font-size="5px" font-weight="bold" font-family="'Helvetica Neue', Helvetica, Arial-Unicode, Arial, Sans-serif">Created by Gregor Cresnar</text><text x="0" y="120" fill="#000000" font-size="5px" font-weight="bold" font-family="'Helvetica Neue', Helvetica, Arial-Unicode, Arial, Sans-serif">from the Noun Project</text></svg>